# xmcd
#
# Track frame offsets: 
#        150
#        18027
#        34637
#        48727
#        63757
#        75632
#        92427
#        110730
#        130337
#        143832
#
# Disc length: 2117 seconds
#
# Revision: 2
# Processed by: cddbd v1.5.2PL0 Copyright (c) Steve Scherf et al.
# Submitted via: ExactAudioCopy v1.1
#
DISCID=7a08430a
DTITLE=Joe Diffie - Life's So Funny
DYEAR=1995
DGENRE=Country
TTITLE0=Bigger Than The Beatles
TTITLE1=Never Mine To Lose
TTITLE2=Down In A Ditch
TTITLE3=Tears In The Rain
TTITLE4=C-O-U-N-T-R-Y
TTITLE5=She Loves Me
TTITLE6=Back To The Cave
TTITLE7=I'm Willing To Try
TTITLE8=Whole Lotta Gone
TTITLE9=Life's So Funny
EXTD=
EXTT0=
EXTT1=
EXTT2=
EXTT3=
EXTT4=
EXTT5=
EXTT6=
EXTT7=
EXTT8=
EXTT9=
PLAYORDER=
